<?xml version="1.0" encoding="UTF-8" standalone="no"?>
<!-- Created with Inkscape (http://www.inkscape.org/) -->

<svg
   width="80.086349mm"
   height="23.297302mm"
   viewBox="0 0 80.086349 23.297303"
   version="1.1"
   id="svg1"
   xml:space="preserve"
   inkscape:version="1.3 (0e150ed, 2023-07-21)"
   sodipodi:docname="logo.svg"
   xmlns:inkscape="http://www.inkscape.org/namespaces/inkscape"
   xmlns:sodipodi="http://sodipodi.sourceforge.net/DTD/sodipodi-0.dtd"
   xmlns="http://www.w3.org/2000/svg"
   xmlns:svg="http://www.w3.org/2000/svg"><sodipodi:namedview
     id="namedview1"
     pagecolor="#ffffff"
     bordercolor="#000000"
     borderopacity="0.25"
     inkscape:showpageshadow="2"
     inkscape:pageopacity="0.0"
     inkscape:pagecheckerboard="0"
     inkscape:deskcolor="#d1d1d1"
     inkscape:document-units="mm"
     inkscape:zoom="4.1553886"
     inkscape:cx="25.509046"
     inkscape:cy="79.655606"
     inkscape:window-width="1920"
     inkscape:window-height="1027"
     inkscape:window-x="0"
     inkscape:window-y="208"
     inkscape:window-maximized="0"
     inkscape:current-layer="g178" /><defs
     id="defs1"><inkscape:path-effect
       effect="bspline"
       id="path-effect181"
       is_visible="true"
       lpeversion="1.3"
       weight="33.333333"
       steps="2"
       helper_size="0"
       apply_no_weight="true"
       apply_with_weight="true"
       only_selected="false"
       uniform="false" /><inkscape:path-effect
       effect="bspline"
       id="path-effect181-0"
       is_visible="true"
       lpeversion="1.3"
       weight="33.333333"
       steps="2"
       helper_size="0"
       apply_no_weight="true"
       apply_with_weight="true"
       only_selected="false"
       uniform="false" /><inkscape:path-effect
       effect="bspline"
       id="path-effect181-3"
       is_visible="true"
       lpeversion="1.3"
       weight="33.333333"
       steps="2"
       helper_size="0"
       apply_no_weight="true"
       apply_with_weight="true"
       only_selected="false"
       uniform="false" /></defs><g
     inkscape:label="Layer 1"
     inkscape:groupmode="layer"
     id="layer1"
     transform="translate(-16.992174,-169.64026)"><path
       style="fill:#4ba7c9;fill-opacity:1;stroke:none;stroke-width:1.00157;stroke-linecap:square;stroke-miterlimit:5.3;stroke-opacity:1;paint-order:markers fill stroke"
       d="M 11.02587,80.954069 C 7.88107,79.489657 4.4312824,76.170264 3.8340605,71.959301 3.3506363,68.550716 3.8530933,36.941648 4.336272,32.233193 5.0541607,25.237551 7.6369913,19.244802 12.282353,14.354444 15.441417,11.028772 18.848142,9.4572177 23.715564,8.5886717 26.595298,8.0748105 28.776347,8.045344 30.499016,8.4122192 c 4.075734,0.8680055 5.54339,2.1578268 7.6273,4.0624038 3.565421,3.258593 5.490754,7.661898 15.798071,28.226597 3.655389,7.293069 7.959113,10.570043 7.732161,12.133997 -0.110252,0.759759 0.991041,1.85326 1.797806,2.264839 1.27369,0.649787 1.042644,0.316228 2.394466,-0.04367 0.85625,-0.227964 0.988882,-0.689125 1.371367,-1.024805 1.544654,-1.355627 0.8037,-0.147059 0.653982,-14.619484 -0.116266,-11.23904 -0.0374,-15.615177 0.423252,-18.3126 1.02324,-5.991638 4.794129,-11.8044802 8.893,-14.0353643 3.2745,-1.7822075 5.592412,-3.0776407 15.240713,-1.6990568 l 10.392306,-0.3771546 4.75812,3.203419 c 5.47921,3.6888997 5.00915,12.2633227 0.29241,17.6353907 -2.46317,2.805395 -6.5664,4.105094 -13.594633,3.722908 -8.239198,-0.448037 -6.349417,-0.0062 -6.021075,16.135735 0.258112,12.689284 -1.843864,18.208842 -4.600644,23.669991 -2.935214,5.814624 -10.733,11.607999 -17.04777,11.607999 -4.966289,0 -10.806456,-4.219171 -14.220415,-8.8684 -2.139588,-2.913747 -9.163596,-14.028262 -15.75173,-26.90523 -5.053349,-9.877121 -5.251807,-11.397492 -7.769276,-12.404783 -1.980591,-0.792476 -1.935761,-2.119183 -3.311972,-0.551766 -1.721347,1.960507 -1.298528,4.386361 -0.80823,11.414906 0.637861,9.143903 0.42128,28.669447 -0.280141,31.379452 -0.72305,2.793577 -3.340708,3.75207 -5.841142,5.030369 -2.419697,1.237026 -5.171758,2.027397 -7.601072,0.896161 z M 98.007656,19.595767 c 1.062648,-0.50674 0.836847,0.290971 1.124047,-1.055657 0.69618,-3.264179 0.480595,-3.079386 -2.392027,-3.079386 -2.310828,0 -2.181353,-1.150046 -2.181353,1.589383 0,2.052385 -0.08478,0.742125 1.191883,1.911503 1.539221,1.409873 0.433225,1.504071 2.25745,0.634157 z"
       id="path4"
       sodipodi:nodetypes="ssssssssssssscsscsssssssssssssssssssss"
       transform="matrix(0.26458333,0,0,0.26458333,16.992174,169.64026)" /><g
       id="g178"
       transform="matrix(0.27301272,0.05896787,-0.04965415,0.33236836,-12.963766,66.903509)"
       style="stroke-width:0.864512"><g
         fill="None"
         fill-opacity="0"
         stroke="#0c1a28"
         stroke-opacity="1"
         stroke-width="1.13703"
         id="g3"
         transform="matrix(0.22821593,0,0,0.22797007,103.2853,216.06732)"><path
           d="m 388,274 c 2.51,0.89 5.8,9.85 11,5 0.54,4.51 4.39,0.58 7,3 -3.68,6.4 -11.23,4.83 -17,3 -0.26,5.11 -1.09,6.88 6,6 -7.93,3.27 -19.56,-1.79 -27,3 2.48,-0.45 5.47,0 8,0 4.45,-0.43 9.59,-0.53 14,0 29.39,0.4 48.59,25.85 67.75,45.25 19.16,19.4 34.31,40.81 53.25,59.75 8.96,8.97 17.79,23.49 30,28 2.05,0.24 3.78,0.85 6,1 2.24,0.15 4.76,0.19 7,0 8.25,-2.19 15.77,-7.19 16,-17 -4.16,-13.14 -5.51,-28.38 -8,-42 -3.25,-17.78 -9.63,-35.55 -10,-54 -0.35,-2.91 -0.27,-6.18 0,-9 0,-5.85 0.49,-10.6 2,-16 12.61,-45.2 56.7,-47.96 96,-55 21.88,-3.92 41.39,-10.86 59,8 11.8,12.64 11.46,31.01 2.23,45.23 -9.23,14.22 -25.71,16.77 -40.3,20.7 -14.6,3.92 -39.93,-1.26 -43.93,18.07 -3.57,17.23 5.43,35.82 8,52 0.49,3.07 0.37,5.96 1,9 6.75,32.6 7.83,71.62 -20.75,95.25 -28.58,23.62 -64.51,27 -95.25,8.75 -15.82,-9.39 -26.88,-23.88 -40,-37 -7.26,-7.26 -15.06,-15.2 -22,-23 -8.29,-9.33 -17.84,-18.45 -26,-28 -11.67,-13.65 -28.39,-37.39 -48,-36 -5.76,2.02 -14.52,13.12 -15,19 7.15,5.89 2.16,23.02 6.98,31.02 4.81,8.01 0.91,10.85 3.02,18.98 3.74,0.16 2.57,5.17 3.93,9.07 1.36,3.91 1.23,10.98 0.07,14.93 1,5.27 1.86,10.69 3,16 3.67,17.15 10.92,40.37 -4.25,54.75 -15.17,14.38 -35.79,15.12 -51.75,3.25 -16.05,-11.94 -15.43,-30.46 -19,-48 -4.59,-22.55 -8.91,-45.29 -13,-68 -2.22,-5.72 -4.63,-12.82 -6,-19 -2,3.12 -2.84,9.18 -8,8 1.65,2.22 1.89,5.06 3,8 -8.85,1.18 -6.47,-8.64 -9.97,-15.03 -3.51,-6.38 -0.61,-19.34 -3.03,-25.97 -0.06,1.33 0,2.67 0,4 v 11 c 0,28.67 12.43,62.29 15.02,89.98 2.6,27.68 9.39,54.58 31.9,72.1 22.51,17.53 58,12.78 75.08,-9.08 1.29,-1.65 3.07497,-4.18017 4.47681,-6.08696 1.85614,-2.90412 2.06839,-3.15105 3.30906,-5.52766 C 405.23028,528.58533 405.55053,528.3885 409,519 c 5.78,-22.55 -4.3,-45.26 -8,-67 -3.7,-21.73 -8.88,-42.79 -14,-64 27.29,21.52 47.94,46.6 72.08,72.92 24.14,26.32 47.72,53.97 83.92,61.08 4.57,0.9 9.16,1 14,1 l 8,0 c 6.24,0 13.15,-0.25 19,-2 1.52,-0.74 3.18,-1.41 5,-2 29.4,-9.58 54.26,-32.8 66,-62 3.41,-8.48 5,-18.61 5,-28 v -7 c 0,-9.97 -2.95,-19.62 -3.93,-29.07 -0.97,-9.46 -3.68,-19.52 -4.4,-28.6 -0.71,-9.08 -7.26,-19.46 -5.67,-28.33 0.17,-0.97 -0.14,-2.02 0,-3 20.25,-4.29 41.39,-6.24 60,-16 16.47,-9.48 28.47,-30.76 30,-49 7.24,-0.03 13.77,-2.85 21,-3 9.29,-0.03 14.94,8.89 22,14 3.07,-8.92 13.84,-2.25 20,-7 -3.62,-3.06 -10.7,-7.6 -13.75,-11.25 -3.04,-3.66 -15.75,-7.21 -12.47,-11.97 3.28,-4.77 5.56,-11.59 9.53,-15.47 3.96,-3.89 8.07,-16.14 -2.98,-10.98 -11.05,5.16 -12.79,22.37 -25.33,25.67 -6.55,0.22 -12.6,2.33 -19,3 -7.35,-30.44 -44.33,-47.62 -73.93,-39.93 -29.59,7.7 -63.83,8.27 -89.99,25.01 -26.16,16.74 -39.9,44.67 -39.08,75.92 0.82,31.25 15.95,65.51 18,97 C 523.86,385.22 501.19,360.43 476.75,333.25 452.32,306.07 426.45,276.62 388,274 Z"
           id="path3"
           style="stroke-width:1.13703"
           sodipodi:nodetypes="ccccccccscccccccccccsccccccscccccccccsccccccccssccccccccscsscccssccccccccccccscccssccc" /></g><g
         fill="None"
         fill-opacity="0"
         stroke="#1c242e"
         stroke-opacity="1"
         stroke-width="1.13703"
         id="g10"
         transform="matrix(0.22821593,0,0,0.22797007,103.2853,216.06732)"><path
           d="m 674,279 c 0.79,-3.4 0.65,-6.42 1,-10 -1.37,-11.09 -17.41,-14.52 -24.75,-7.75 -7.34,6.76 -1.78,7.72 -1.18,14.68 0.61,6.95 5.76,5.44 10.93,8.07 5.17,2.63 10.32,-4.85 14,-5 z"
           id="path10"
           style="stroke-width:1.13703" /></g><g
         fill="None"
         fill-opacity="0"
         stroke="#1d2d3a"
         stroke-opacity="1"
         stroke-width="1.13703"
         id="g13"
         transform="matrix(0.22821593,0,0,0.22797007,103.2853,216.06732)"><path
           d="m 274,375 c 2.42,6.63 -0.48,19.59 3.03,25.97 3.5,6.39 1.12,16.21 9.97,15.03 -1.11,-2.94 -1.35,-5.78 -3,-8 5.16,1.18 6,-4.88 8,-8 1.37,6.18 3.78,13.28 6,19 -0.37,-2.07 -0.62,-3.89 -1,-6 -3.18,-17.62 -6.46,-41.17 -0.02,-58.02 6.43,-16.86 13.95,-26.88 26.27,-39.73 12.32,-12.86 29.91,-14.77 44.75,-21.25 7.44,-4.79 19.07,0.27 27,-3 -7.09,0.88 -6.26,-0.89 -6,-6 5.77,1.83 13.32,3.4 17,-3 -2.61,-2.42 -6.46,1.51 -7,-3 -5.2,4.85 -8.49,-4.11 -11,-5 -57.03,-3.88 -111.54,43.96 -114,101 z"
           id="path13"
           style="stroke-width:1.13703" /></g><g
         fill="None"
         fill-opacity="0"
         stroke="#2f6a85"
         stroke-opacity="1"
         stroke-width="1.13703"
         id="g18"
         transform="matrix(0.22821593,0,0,0.22797007,103.2853,216.06732)"><path
           d="m 376,294 c 2.67,0 5.33,0 8,0 2,0 4,-0.03 6,0 -4.41,-0.53 -9.55,-0.43 -14,0 z"
           id="path18"
           style="stroke-width:1.13703" /></g><g
         fill="None"
         fill-opacity="0"
         stroke="#285165"
         stroke-opacity="1"
         stroke-width="1.13703"
         id="g22"
         transform="matrix(0.22821593,0,0,0.22797007,103.2853,216.06732)"><path
           d="m 552,315 c -0.06,-3 0,-6 0,-9 -0.27,2.82 -0.35,6.09 0,9 z"
           id="path22"
           style="stroke-width:1.13703" /></g><g
         fill="None"
         fill-opacity="0"
         stroke="#1c4657"
         stroke-opacity="1"
         stroke-width="1.13703"
         id="g33"
         transform="matrix(0.22821593,0,0,0.22797007,103.2853,216.06732)"><path
           d="m 368,388 c 0.05,-0.23 0.97,-0.65 1,-1 0.48,-5.88 9.24,-16.98 15,-19 -10.36,0.74 -15.81,10.48 -16,20 z"
           id="path33"
           style="stroke-width:1.13703" /></g><g
         fill="None"
         fill-opacity="0"
         stroke="#72757c"
         stroke-opacity="1"
         stroke-width="1.13703"
         id="g37"
         transform="matrix(0.22821593,0,0,0.22797007,103.2853,216.06732)"><path
           d="m 274,390 c 0,-3.67 0,-7.33 0,-11 -0.48,3.53 -0.34,7.46 0,11 z"
           id="path37"
           style="stroke-width:1.13703" /></g><g
         fill="None"
         fill-opacity="0"
         stroke="#072341"
         stroke-opacity="1"
         stroke-width="1.13703"
         id="g43"
         transform="matrix(0.22821593,0,0,0.22797007,103.2853,216.06732)"><path
           d="m 368,388 c -0.23,11.51 4.37,22.21 7,33 3.2,13.12 5.5,26.81 8,40 1.16,-3.95 1.29,-11.02 -0.07,-14.93 -1.36,-3.9 -0.19,-8.91 -3.93,-9.07 -2.11,-8.13 1.79,-10.97 -3.02,-18.98 -4.82,-8 0.17,-25.13 -6.98,-31.02 -0.03,0.35 -0.95,0.77 -1,1 z"
           id="path43"
           style="stroke-width:1.13703" /></g><g
         fill="None"
         fill-opacity="0"
         stroke="#68717b"
         stroke-opacity="1"
         stroke-width="1.13703"
         id="g50"
         transform="matrix(0.22821593,0,0,0.22797007,103.2853,216.06732)"><path
           d="m 660,429 c 0.21,-2.13 0.21,-4.81 0,-7 0,2.33 0,4.67 0,7 z"
           id="path50"
           style="stroke-width:1.13703" /></g><g
         fill="None"
         fill-opacity="0"
         stroke="#124466"
         stroke-opacity="1"
         stroke-width="1.13703"
         id="g51"
         transform="matrix(0.22821593,0,0,0.22797007,103.2853,216.06732)"><path
           d="m 552,429 c 0.93,-0.14 1.51,-0.87 2,-1 -2.24,0.19 -4.76,0.15 -7,0 1.43,0.31 2.84,1.32 5,1 z"
           id="path51"
           style="stroke-width:1.13703" /></g><g
         fill="None"
         fill-opacity="0"
         stroke="#6c737b"
         stroke-opacity="1"
         stroke-width="1.13703"
         id="g66"
         transform="matrix(0.22821593,0,0,0.22797007,103.2853,216.06732)"><path
           d="m 565,523 c -2.67,0 -5.33,0 -8,0 2.45,0.24 5.49,0.24 8,0 z"
           id="path66"
           style="stroke-width:1.13703" /></g><g
         fill="None"
         fill-opacity="0"
         stroke="#23546c"
         stroke-opacity="1"
         stroke-width="1.13703"
         id="g67"
         transform="matrix(0.22821593,0,0,0.22797007,103.2853,216.06732)" /><g
         fill="#0c1a28"
         fill-opacity="1"
         stroke="None"
         id="g91"
         transform="matrix(0.22821593,0,0,0.22797007,103.2853,216.06732)"
         style="stroke-width:3.79011"><path
           d="m 388,274 c 2.51,0.89 5.8,9.85 11,5 0.54,4.51 4.39,0.58 7,3 -3.68,6.4 -11.23,4.83 -17,3 -0.26,5.11 -1.09,6.88 6,6 -7.93,3.27 -19.56,-1.79 -27,3 2.48,-0.45 5.47,0 8,0 4.45,-0.43 9.59,-0.53 14,0 29.39,0.4 48.59,25.85 67.75,45.25 19.16,19.4 34.31,40.81 53.25,59.75 8.96,8.97 17.79,23.49 30,28 2.05,0.24 3.78,0.85 6,1 2.24,0.15 4.76,0.19 7,0 8.25,-2.19 15.77,-7.19 16,-17 -4.16,-13.14 -5.51,-28.38 -8,-42 -3.25,-17.78 -9.63,-35.55 -10,-54 -0.35,-2.91 -0.27,-6.18 0,-9 0,-5.85 0.49,-10.6 2,-16 12.61,-45.2 56.7,-47.96 96,-55 21.88,-3.92 41.39,-10.86 59,8 11.8,12.64 11.46,31.01 2.23,45.23 -9.23,14.22 -25.71,16.77 -40.3,20.7 -14.6,3.92 -39.93,-1.26 -43.93,18.07 -3.57,17.23 5.43,35.82 8,52 0.49,3.07 0.37,5.96 1,9 6.75,32.6 7.83,71.62 -20.75,95.25 -28.58,23.62 -64.51,27 -95.25,8.75 -15.82,-9.39 -26.88,-23.88 -40,-37 -7.26,-7.26 -15.06,-15.2 -22,-23 -8.29,-9.33 -17.84,-18.45 -26,-28 -11.67,-13.65 -28.39,-37.39 -48,-36 -5.76,2.02 -14.52,13.12 -15,19 7.15,5.89 2.16,23.02 6.98,31.02 4.81,8.01 0.91,10.85 3.02,18.98 3.74,0.16 2.57,5.17 3.93,9.07 1.36,3.91 1.23,10.98 0.07,14.93 1,5.27 1.86,10.69 3,16 3.67,17.15 10.92,40.37 -4.25,54.75 -15.17,14.38 -35.79,15.12 -51.75,3.25 -16.05,-11.94 -15.43,-30.46 -19,-48 -4.59,-22.55 -8.91,-45.29 -13,-68 -2.22,-5.72 -4.63,-12.82 -6,-19 -2,3.12 -2.84,9.18 -8,8 1.65,2.22 1.89,5.06 3,8 -8.85,1.18 -6.47,-8.64 -9.97,-15.03 -3.51,-6.38 -0.61,-19.34 -3.03,-25.97 -0.06,1.33 0,2.67 0,4 v 11 c 0,28.67 12.43,62.29 15.02,89.98 2.6,27.68 9.39,54.58 31.9,72.1 22.51,17.53 58,12.78 75.08,-9.08 5.82513,-8.48566 9.4583,-14.99429 13,-24 5.78,-22.55 -4.3,-45.26 -8,-67 -3.7,-21.73 -8.88,-42.79 -14,-64 27.29,21.52 47.94,46.6 72.08,72.92 24.14,26.32 47.72,53.97 83.92,61.08 4.57,0.9 9.16,1 14,1 l 8,0 c 6.24,0 13.15,-0.25 19,-2 1.52,-0.74 3.18,-1.41 5,-2 29.4,-9.58 54.26,-32.8 66,-62 3.41,-8.48 5,-18.61 5,-28 v -7 c 0,-9.97 -2.95,-19.62 -3.93,-29.07 -0.97,-9.46 -3.68,-19.52 -4.4,-28.6 -0.71,-9.08 -7.26,-19.46 -5.67,-28.33 0.17,-0.97 -0.14,-2.02 0,-3 20.25,-4.29 41.39,-6.24 60,-16 16.47,-9.48 28.47,-30.76 30,-49 7.24,-0.03 13.77,-2.85 21,-3 9.29,-0.03 14.94,8.89 22,14 3.07,-8.92 13.84,-2.25 20,-7 -3.62,-3.06 -10.7,-7.6 -13.75,-11.25 -3.04,-3.66 -15.75,-7.21 -12.47,-11.97 3.28,-4.77 5.56,-11.59 9.53,-15.47 3.96,-3.89 8.07,-16.14 -2.98,-10.98 -11.05,5.16 -12.79,22.37 -25.33,25.67 -6.55,0.22 -12.6,2.33 -19,3 -7.35,-30.44 -44.33,-47.62 -73.93,-39.93 -29.59,7.7 -63.83,8.27 -89.99,25.01 -26.16,16.74 -39.9,44.67 -39.08,75.92 0.82,31.25 15.95,65.51 18,97 C 523.86,385.22 501.19,360.43 476.75,333.25 452.32,306.07 426.45,276.62 388,274 Z"
           id="path91"
           style="stroke-width:3.79011;fill:#000000;fill-opacity:1"
           sodipodi:nodetypes="ccccccccscccccccccccsccccccscccccccccsccccccccssccccccscsscccssccccccccccccscccssccc" /></g><g
         fill="#1c242e"
         fill-opacity="1"
         stroke="None"
         id="g98"
         transform="matrix(0.22821593,0,0,0.22797007,103.2853,216.06732)"
         style="stroke-width:3.79011"><path
           d="m 674,279 c 0.79,-3.4 0.65,-6.42 1,-10 -1.37,-11.09 -17.41,-14.52 -24.75,-7.75 -7.34,6.76 -1.78,7.72 -1.18,14.68 0.61,6.95 5.76,5.44 10.93,8.07 5.17,2.63 10.32,-4.85 14,-5 z"
           id="path98"
           style="stroke-width:3.79011" /></g><g
         fill="#1d2d3a"
         fill-opacity="1"
         stroke="None"
         id="g101"
         transform="matrix(0.22821593,0,0,0.22797007,103.2853,216.06732)"
         style="stroke-width:3.79011;fill:#000000;fill-opacity:1"><path
           d="m 274,375 c 2.42,6.63 -0.48,19.59 3.03,25.97 3.5,6.39 1.12,16.21 9.97,15.03 -1.11,-2.94 -1.35,-5.78 -3,-8 5.16,1.18 6,-4.88 8,-8 1.37,6.18 3.78,13.28 6,19 -0.37,-2.07 -0.62,-3.89 -1,-6 -3.18,-17.62 -6.46,-41.17 -0.02,-58.02 6.43,-16.86 13.95,-26.88 26.27,-39.73 12.32,-12.86 29.91,-14.77 44.75,-21.25 7.44,-4.79 19.07,0.27 27,-3 -7.09,0.88 -6.26,-0.89 -6,-6 5.77,1.83 13.32,3.4 17,-3 -2.61,-2.42 -6.46,1.51 -7,-3 -5.2,4.85 -8.49,-4.11 -11,-5 -57.03,-3.88 -111.54,43.96 -114,101 z"
           id="path101"
           style="stroke-width:3.79011;fill:#000000;fill-opacity:1" /></g><g
         fill="#2f6a85"
         fill-opacity="1"
         stroke="None"
         id="g106"
         transform="matrix(0.22821593,0,0,0.22797007,103.2853,216.06732)"
         style="stroke-width:3.79011"><path
           d="m 376,294 c 2.67,0 5.33,0 8,0 2,0 4,-0.03 6,0 -4.41,-0.53 -9.55,-0.43 -14,0 z"
           id="path106"
           style="stroke-width:3.79011;fill:#000000;fill-opacity:1" /></g><g
         fill="#285165"
         fill-opacity="1"
         stroke="None"
         id="g110"
         transform="matrix(0.22821593,0,0,0.22797007,103.2853,216.06732)"
         style="stroke-width:3.79011"><path
           d="m 552,315 c -0.06,-3 0,-6 0,-9 -0.27,2.82 -0.35,6.09 0,9 z"
           id="path110"
           style="stroke-width:3.79011" /></g><g
         fill="#1c4657"
         fill-opacity="1"
         stroke="None"
         id="g121"
         transform="matrix(0.22821593,0,0,0.22797007,103.2853,216.06732)"
         style="stroke-width:3.79011"><path
           d="m 368,388 c 0.05,-0.23 0.97,-0.65 1,-1 0.48,-5.88 9.24,-16.98 15,-19 -10.36,0.74 -15.81,10.48 -16,20 z"
           id="path121"
           style="stroke-width:3.79011;fill:#000000;fill-opacity:1" /></g><g
         fill="#236792"
         fill-opacity="1"
         stroke="None"
         id="g123"
         transform="matrix(0.22821593,0,0,0.22797007,103.2853,216.06732)"
         style="stroke-width:3.79011" /><g
         fill="#72757c"
         fill-opacity="1"
         stroke="None"
         id="g125"
         transform="matrix(0.22821593,0,0,0.22797007,103.2853,216.06732)"
         style="stroke-width:3.79011"><path
           d="m 274,390 c 0,-3.67 0,-7.33 0,-11 -0.48,3.53 -0.34,7.46 0,11 z"
           id="path125"
           style="stroke-width:3.79011" /></g><g
         fill="#072341"
         fill-opacity="1"
         stroke="None"
         id="g131"
         transform="matrix(0.22821593,0,0,0.22797007,103.2853,216.06732)"
         style="stroke-width:3.79011"><path
           d="m 368,388 c -0.23,11.51 4.37,22.21 7,33 3.2,13.12 5.5,26.81 8,40 1.16,-3.95 1.29,-11.02 -0.07,-14.93 -1.36,-3.9 -0.19,-8.91 -3.93,-9.07 -2.11,-8.13 1.79,-10.97 -3.02,-18.98 -4.82,-8 0.17,-25.13 -6.98,-31.02 -0.03,0.35 -0.95,0.77 -1,1 z"
           id="path131"
           style="stroke-width:3.79011;fill:#000000;fill-opacity:1" /></g><g
         fill="#68717b"
         fill-opacity="1"
         stroke="None"
         id="g138"
         transform="matrix(0.22821593,0,0,0.22797007,103.2853,216.06732)"
         style="stroke-width:3.79011"><path
           d="m 660,429 c 0.21,-2.13 0.21,-4.81 0,-7 0,2.33 0,4.67 0,7 z"
           id="path138"
           style="stroke-width:3.79011" /></g><g
         fill="#124466"
         fill-opacity="1"
         stroke="None"
         id="g139"
         transform="matrix(0.22821593,0,0,0.22797007,103.2853,216.06732)"
         style="stroke-width:3.79011"><path
           d="m 552,429 c 0.93,-0.14 1.51,-0.87 2,-1 -2.24,0.19 -4.76,0.15 -7,0 1.43,0.31 2.84,1.32 5,1 z"
           id="path139"
           style="stroke-width:3.79011;fill:#000000;fill-opacity:1" /></g><g
         fill="#6c737b"
         fill-opacity="1"
         stroke="None"
         id="g154"
         transform="matrix(0.22821593,0,0,0.22797007,103.2853,216.06732)"
         style="stroke-width:3.79011"><path
           d="m 565,523 c -2.67,0 -5.33,0 -8,0 2.45,0.24 5.49,0.24 8,0 z"
           id="path154"
           style="stroke-width:3.79011" /></g></g><text
       xml:space="preserve"
       style="font-style:normal;font-variant:normal;font-weight:900;font-stretch:normal;font-size:22.5778px;font-family:Lato;-inkscape-font-specification:'Lato, Heavy';font-variant-ligatures:normal;font-variant-caps:normal;font-variant-numeric:normal;font-variant-east-asian:normal;letter-spacing:0px;text-orientation:upright;fill:#1a1a1a;fill-opacity:1;stroke:none;stroke-width:0.264999;stroke-linecap:square;stroke-miterlimit:5.3;stroke-opacity:1;paint-order:markers stroke fill"
       x="50.748909"
       y="189.22351"
       id="text180"><tspan
         sodipodi:role="line"
         id="tspan180"
         style="font-style:normal;font-variant:normal;font-weight:900;font-stretch:normal;font-size:22.5778px;font-family:Lato;-inkscape-font-specification:'Lato, Heavy';font-variant-ligatures:normal;font-variant-caps:normal;font-variant-numeric:normal;font-variant-east-asian:normal;letter-spacing:0px;fill:#1a1a1a;fill-opacity:1;stroke-width:0.265"
         x="50.748909"
         y="189.22351"
         rotate="0 0 0 0 0">iuPy</tspan></text><text
       xml:space="preserve"
       style="font-style:normal;font-variant:normal;font-weight:normal;font-stretch:normal;font-size:4.23333px;font-family:Si;-inkscape-font-specification:Si;text-align:center;letter-spacing:0px;text-orientation:upright;text-anchor:middle;fill:#ff0f0f;fill-opacity:1;stroke:none;stroke-width:0.264999;stroke-linecap:square;stroke-miterlimit:5.3;stroke-opacity:1;paint-order:markers fill stroke"
       x="36.38158"
       y="214.49442"
       id="text3"><tspan
         sodipodi:role="line"
         id="tspan3"
         style="stroke-width:0.265"
         x="36.38158"
         y="214.49442" /></text></g></svg>
